<svg width="132" height="133" viewBox="0 0 132 133" fill="none" xmlns="http://www.w3.org/2000/svg">
<path fill-rule="evenodd" clip-rule="evenodd" d="M10.6346 42.8034C10.7477 42.6249 11.3265 42.4329 11.9722 42.3595C15.5595 41.9523 22.9896 43.3407 28.188 45.3895C36.9818 48.8551 42.693 53.9875 45.6283 61.0623C46.6971 63.6385 47.5026 67.1945 48.3125 72.9119C49.7807 83.2773 50.893 87.1538 53.5021 90.9955C55.3118 93.6608 58.7221 96.3475 61.2387 97.0909C61.8866 97.2822 62.2315 97.5253 62.3695 97.8881C62.8867 99.2486 63.0448 106.471 62.8 117.559C62.6645 123.694 62.5548 129.51 62.5563 130.484C62.5576 131.457 62.4744 132.254 62.371 132.254C62.0458 132.254 60.6805 129.419 60.3049 127.963C59.7718 125.898 59.5987 124.638 59.4603 121.817C59.3919 120.419 59.2822 118.261 59.217 117.022C59.1518 115.783 58.8686 113.418 58.5878 111.766C57.6027 105.971 56.2954 101.789 54.0609 97.2859C51.4649 92.0542 49.4718 89.3014 45.2018 85.0497C42.1333 81.9942 40.3799 80.5578 35.2075 76.8619C28.9277 72.3745 26.064 70.1694 23.5293 67.8692C17.0007 61.9449 13.1283 55.5835 11.0564 47.3796C10.416 44.8441 10.2798 43.3646 10.6346 42.8034ZM95.4494 49.4734C101.229 45.5742 109.536 42.8021 116.727 42.3734C118.143 42.2891 119.43 42.2531 119.587 42.2936C119.744 42.3342 120.055 42.3672 120.278 42.3672C120.945 42.3672 121.321 43.3766 121.117 44.6197C120.458 48.6312 118.884 53.2551 116.99 56.7405C113.232 63.6551 108.146 68.6726 97.0976 76.3657C94.6378 78.0783 91.2661 80.6067 89.6965 81.9155C81.4147 88.8211 75.804 98.0771 73.6149 108.445C72.7388 112.594 72.4423 115.001 72.2109 119.845C71.9807 124.665 71.7919 126.27 71.2309 128.178C70.8521 129.466 69.4686 132.254 69.2077 132.254C68.7458 132.254 68.6667 99.0604 69.126 97.9717C69.2729 97.6233 69.8543 97.2679 71.0962 96.7672C75.2925 95.0752 78.7822 91.1425 80.5347 86.1305C81.5016 83.3653 82.4135 79.0389 83.1579 73.688C83.5271 71.0333 84.0158 67.9542 84.2436 66.8457C85.1358 62.5074 86.8902 58.3758 89.0735 55.4713C90.3555 53.7659 93.5725 50.7395 95.4494 49.4734Z" fill="#9FE29A"/>
<path fill-rule="evenodd" clip-rule="evenodd" d="M61.4863 26.0664C54.5183 26.6392 49.5464 27.7799 39.0684 31.2095C26.5806 35.2973 24.1882 35.7999 17.294 35.7851C12.3541 35.7746 10.938 35.5485 8.67152 34.4089C5.79687 32.9637 3.97576 33.0656 2.34301 34.7635C-1.30093 38.5529 -0.602437 51.8484 3.79792 62.4511C7.92089 72.386 13.7193 79.0848 27.8227 90.2065C32.5792 93.9573 36.6146 97.9159 38.5003 100.681C41.4275 104.972 42.7672 108.844 43.8954 116.271C44.2359 118.513 44.7226 121.023 44.9768 121.849C46.4163 126.525 49.6524 129.904 54.3006 131.586C56.3227 132.318 58.0217 132.786 58.1579 132.65C58.2062 132.602 57.9196 131.745 57.5212 130.745C56.451 128.06 56.1388 126.209 55.9041 121.158C55.4564 111.527 53.9867 105.178 50.6517 98.4658C48.8836 94.9076 47.245 92.5015 44.4107 89.3008C41.8415 86.3997 38.7854 83.8544 32.2035 79.134C21.5143 71.4679 17.8363 68.1339 13.7697 62.4254C11.2072 58.828 8.51642 52.6471 7.20802 47.3526C6.23129 43.3999 5.7825 38.2369 6.37974 37.8242C6.80257 37.5322 10.8876 37.7613 14.2906 38.2683C19.1005 38.9846 23.1044 39.2416 29.4147 39.2388C35.8646 39.236 38.7541 38.9863 44.1434 37.966C55.249 35.8636 59.8493 35.3975 67.8148 35.5676C74.0678 35.7012 77.1594 36.0492 84.2261 37.4142C92.2472 38.9637 98.0817 39.4861 105.142 39.2866C110.239 39.1427 113.289 38.8912 117.478 38.2698C121.329 37.698 124.558 37.5185 125.163 37.8422C125.741 38.1513 125.765 38.9515 125.304 42.4689C124.655 47.4171 122.973 52.8766 120.705 57.3915C118.368 62.0442 116.464 64.6528 112.56 68.5514C109.364 71.7422 106.752 73.8931 102.055 77.1996C91.4743 84.649 87.7505 87.9583 83.8738 93.3577C82.0461 95.9032 79.5747 100.861 78.4628 104.214C76.7983 109.233 76.1517 113.091 75.849 119.811C75.5596 126.241 75.0789 128.869 73.6813 131.664C73.3421 132.342 73.1383 132.894 73.2286 132.89C73.3187 132.886 74.6061 132.474 76.0895 131.974C79.5106 130.821 80.902 129.997 83.0672 127.844C85.7612 125.165 86.8094 122.645 87.5512 117.065C89.2855 104.016 92.4102 99.0639 105.25 89.0133C116.843 79.9382 122.567 73.4696 126.782 64.6779C129.947 58.0795 131.502 51.2303 131.509 43.8689C131.514 38.7003 130.812 36.0893 128.987 34.4868C127.337 33.0379 125.568 33.0486 122.643 34.5258C120.863 35.4251 120.701 35.4644 117.708 35.719C114.096 36.0262 110.574 35.8791 106.859 35.2655C103.5 34.711 102.372 34.3976 94.2015 31.7484C83.9549 28.426 79.0142 27.1453 73.607 26.4103C70.6056 26.0023 64.4067 25.8264 61.4863 26.0664Z" fill="#008080"/>
<circle cx="65.8595" cy="10.7263" r="10.7263" fill="#9FE29A"/>
</svg>
